<svg width="47" height="47" viewBox="0 0 47 47" fill="none" xmlns="http://www.w3.org/2000/svg">
<rect x="0.5" y="0.5" width="46" height="46" fill="#D9D9D9" stroke="black"/>
<path d="M46 1L1 46M1 1L46 46" stroke="black"/>
<path d="M19.4801 15H18.0028L22.2756 3.36364H23.7301L28.0028 15H26.5256L23.0483 5.20455H22.9574L19.4801 15ZM20.0256 10.4545H25.9801V11.7045H20.0256V10.4545Z" fill="black"/>
<path d="M20.4091 43V31.3636H21.8182V41.75H27.2273V43H20.4091Z" fill="black"/>
<path d="M2.2919 16.3636H3.97372L7.92827 26.0227H8.06463L12.0192 16.3636H13.701V28H12.3828V19.1591H12.2692L8.63281 28H7.36009L3.72372 19.1591H3.61009V28H2.2919V16.3636Z" fill="black"/>
<path d="M35.1278 28V16.3636H42.1506V17.6136H36.5369V21.5455H41.7869V22.7955H36.5369V26.75H42.2415V28H35.1278Z" fill="black"/>
</svg>
